<svg xmlns="http://www.w3.org/2000/svg" viewBox="-202.5 -189.0 404.9 378.0" width="405" height="378" role="img" aria-label="Specialita mediche"><defs><filter id="sh" x="-20%" y="-20%" width="140%" height="140%"><feDropShadow dx="0" dy="10" stdDeviation="12" flood-color="#0f3f63" flood-opacity="0.30"/></filter></defs><polygon points="172.5,-167.0 188.0,-158.0 188.0,-140.0 172.5,-131.0 156.9,-140.0 156.9,-158.0" fill="none" stroke="#ffffff" stroke-width="2.5" opacity="0.55"/><polygon points="-168.5,123.0 -149.4,134.0 -149.4,156.0 -168.5,167.0 -187.5,156.0 -187.5,134.0" fill="none" stroke="#ffffff" stroke-width="2.5" opacity="0.55"/><polygon points="176.5,105.0 188.6,112.0 188.6,126.0 176.5,133.0 164.3,126.0 164.3,112.0" fill="none" stroke="#ffffff" stroke-width="2.5" opacity="0.55"/><g filter="url(#sh)"><polygon points="0.0,-56.0 48.5,-28.0 48.5,28.0 0.0,56.0 -48.5,28.0 -48.5,-28.0" fill="#0097C9" stroke="#ffffff" stroke-width="4"/><g transform="translate(0.0,0.0)" fill="#fff"><g fill="none" stroke="#fff" stroke-width="3.4" stroke-linecap="round" stroke-linejoin="round"><path d="M-16.0 -19.0 v7.0 a 7.0 7.0 0 0 0 14.0 0 v-7.0"/><path d="M-9.0 -5.0 v7.0 a 12.0 12.0 0 0 0 24.0 0 v-3.0"/><circle cx="15.0" cy="8.0" r="4.5"/></g></g><polygon points="100.5,-56.0 149.0,-28.0 149.0,28.0 100.5,56.0 52.0,28.0 52.0,-28.0" fill="#69C4D3" stroke="#ffffff" stroke-width="4"/><g transform="translate(100.5,0.0)" fill="#fff"><path d="M0 18.0 C -22.0 2.0 -16.0 -18.0 0 -7.0 C 16.0 -18.0 22.0 2.0 0 18.0 Z"/></g><polygon points="-100.5,-56.0 -52.0,-28.0 -52.0,28.0 -100.5,56.0 -149.0,28.0 -149.0,-28.0" fill="#277DC0" stroke="#ffffff" stroke-width="4"/><g transform="translate(-100.5,0.0)" fill="#fff"><rect x="-7.0" y="-20.0" width="14.0" height="40.0" rx="5.0"/><rect x="-20.0" y="-7.0" width="40.0" height="14.0" rx="5.0"/></g><polygon points="50.2,-143.0 98.7,-115.0 98.7,-59.0 50.2,-31.0 1.7,-59.0 1.7,-115.0" fill="#277DC0" stroke="#ffffff" stroke-width="4"/><g transform="translate(50.2,-87.0)" fill="#fff"><path d="M-7.0 -17.0 V -5.0 L -16.0 14.0 A 4.0 4.0 0 0 0 -12.0 20.0 H 12.0 A 4.0 4.0 0 0 0 16.0 14.0 L 7.0 -5.0 V -17.0" fill="none" stroke="#fff" stroke-width="3.4" stroke-linejoin="round"/><line x1="-11.0" y1="-17.0" x2="11.0" y2="-17.0" stroke="#fff" stroke-width="3.4" stroke-linecap="round"/><line x1="-9.0" y1="5.0" x2="9.0" y2="5.0" stroke="#fff" stroke-width="3.0" stroke-linecap="round"/></g><polygon points="-50.2,-143.0 -1.7,-115.0 -1.7,-59.0 -50.2,-31.0 -98.7,-59.0 -98.7,-115.0" fill="#0097C9" stroke="#ffffff" stroke-width="4"/><g transform="translate(-50.2,-87.0)" fill="#fff"><g transform="rotate(-45)" fill="none" stroke="#fff" stroke-width="3.4"><rect x="-18.0" y="-8.0" width="36.0" height="16.0" rx="8.0"/><line x1="0" y1="-8.0" x2="0" y2="8.0"/></g></g><polygon points="50.2,31.0 98.7,59.0 98.7,115.0 50.2,143.0 1.7,115.0 1.7,59.0" fill="#69C4D3" stroke="#ffffff" stroke-width="4"/><g transform="translate(50.2,87.0)" fill="#fff"><path d="M-22.0 0 H -9.0 L -4.0 -15.0 L 4.0 17.0 L 9.0 -7.0 L 13.0 2.0 H 22.0" fill="none" stroke="#fff" stroke-width="3.6" stroke-linecap="round" stroke-linejoin="round"/></g><polygon points="-50.2,31.0 -1.7,59.0 -1.7,115.0 -50.2,143.0 -98.7,115.0 -98.7,59.0" fill="#277DC0" stroke="#ffffff" stroke-width="4"/><g transform="translate(-50.2,87.0)" fill="#fff"><g transform="rotate(-45)" fill="none" stroke="#fff" stroke-width="3.2" stroke-linecap="round" stroke-linejoin="round"><line x1="-22.0" y1="0" x2="-14.0" y2="0"/><line x1="-22.0" y1="-6.0" x2="-22.0" y2="6.0"/><rect x="-14.0" y="-7.0" width="20.0" height="14.0" rx="2.0"/><line x1="-14.0" y1="-10.0" x2="-14.0" y2="10.0"/><line x1="-8.0" y1="-7.0" x2="-8.0" y2="0"/><line x1="-2.0" y1="-7.0" x2="-2.0" y2="0"/><line x1="6.0" y1="0" x2="12.0" y2="0"/><line x1="12.0" y1="0" x2="23.0" y2="0"/></g></g></g></svg>