<svg xmlns="http://www.w3.org/2000/svg" viewBox="-202.5 -189.0 404.9 378.0" width="405" height="378" role="img" aria-label="Le nostre specialita mediche">
<defs><filter id="sh" x="-20%" y="-20%" width="140%" height="140%"><feDropShadow dx="0" dy="10" stdDeviation="12" flood-color="#0f3f63" flood-opacity="0.30"/></filter></defs>
<polygon points="172.5,-167.0 188.0,-158.0 188.0,-140.0 172.5,-131.0 156.9,-140.0 156.9,-158.0" fill="none" stroke="#ffffff" stroke-width="2.5" opacity="0.55"/><polygon points="-168.5,123.0 -149.4,134.0 -149.4,156.0 -168.5,167.0 -187.5,156.0 -187.5,134.0" fill="none" stroke="#ffffff" stroke-width="2.5" opacity="0.55"/><polygon points="176.5,105.0 188.6,112.0 188.6,126.0 176.5,133.0 164.3,126.0 164.3,112.0" fill="none" stroke="#ffffff" stroke-width="2.5" opacity="0.55"/><g filter="url(#sh)"><polygon points="0.0,-56.0 48.5,-28.0 48.5,28.0 0.0,56.0 -48.5,28.0 -48.5,-28.0" fill="#0097C9" stroke="#ffffff" stroke-width="4"/><g transform="translate(0.0,0.0)" fill="#fff"><g fill="none" stroke="#fff" stroke-width="4.2" stroke-linecap="round" stroke-linejoin="round"><path d="M-18 -22 v10 a10 10 0 0 0 20 0 v-10"/><path d="M2 -2 v8 a14 14 0 0 0 14 14 a12 12 0 0 0 12 -12 v-6"/></g><circle cx="28" cy="-8" r="6" fill="none" stroke="#fff" stroke-width="4.2"/></g><polygon points="100.5,-56.0 149.0,-28.0 149.0,28.0 100.5,56.0 52.0,28.0 52.0,-28.0" fill="#69C4D3" stroke="#ffffff" stroke-width="4"/><g transform="translate(100.5,0.0)" fill="#fff"><path d="M0 19 C-24 1 -19 -21 0 -9 C19 -21 24 1 0 19 Z"/></g><polygon points="-100.5,-56.0 -52.0,-28.0 -52.0,28.0 -100.5,56.0 -149.0,28.0 -149.0,-28.0" fill="#277DC0" stroke="#ffffff" stroke-width="4"/><g transform="translate(-100.5,0.0)" fill="#fff"><rect x="-7" y="-21" width="14" height="42" rx="4"/><rect x="-21" y="-7" width="42" height="14" rx="4"/></g><polygon points="50.2,-143.0 98.7,-115.0 98.7,-59.0 50.2,-31.0 1.7,-59.0 1.7,-115.0" fill="#277DC0" stroke="#ffffff" stroke-width="4"/><g transform="translate(50.2,-87.0)" fill="#fff"><path d="M-8 -20 h16 v12 l12 24 a5 5 0 0 1 -5 8 h-30 a5 5 0 0 1 -5 -8 l12 -24 z" fill="none" stroke="#fff" stroke-width="4.2" stroke-linejoin="round"/><rect x="-12" y="-24" width="24" height="5" rx="2.5"/></g><polygon points="-50.2,-143.0 -1.7,-115.0 -1.7,-59.0 -50.2,-31.0 -98.7,-59.0 -98.7,-115.0" fill="#0097C9" stroke="#ffffff" stroke-width="4"/><g transform="translate(-50.2,-87.0)" fill="#fff"><circle cx="-9" cy="-9" r="12"/><circle cx="10" cy="10" r="12" fill="none" stroke="#fff" stroke-width="4.2"/></g><polygon points="50.2,31.0 98.7,59.0 98.7,115.0 50.2,143.0 1.7,115.0 1.7,59.0" fill="#69C4D3" stroke="#ffffff" stroke-width="4"/><g transform="translate(50.2,87.0)" fill="#fff"><path d="M-24 0 h9 l5 -16 l8 32 l7 -22 l4 6 h9" fill="none" stroke="#fff" stroke-width="4.4" stroke-linecap="round" stroke-linejoin="round"/></g><polygon points="-50.2,31.0 -1.7,59.0 -1.7,115.0 -50.2,143.0 -98.7,115.0 -98.7,59.0" fill="#277DC0" stroke="#ffffff" stroke-width="4"/><g transform="translate(-50.2,87.0)" fill="#fff"><g fill="none" stroke="#fff" stroke-width="4.2" stroke-linecap="round"><line x1="-20" y1="20" x2="8" y2="-8"/><line x1="8" y1="-18" x2="18" y2="-8"/><line x1="-3" y1="3" x2="8" y2="14"/><line x1="-24" y1="16" x2="-16" y2="24"/></g></g></g>
</svg>