<svg xmlns="http://www.w3.org/2000/svg" width="66.00" height="38.11" viewBox="0 0 66.00 38.11"><g fill="none" stroke="#69C4D3" stroke-width="1.2" opacity="0.14"><polygon points="-11.00,-19.05 -22.00,0.00 -44.00,0.00 -55.00,-19.05 -44.00,-38.11 -22.00,-38.11"/><polygon points="-11.00,19.05 -22.00,38.11 -44.00,38.11 -55.00,19.05 -44.00,0.00 -22.00,0.00"/><polygon points="-11.00,57.16 -22.00,76.21 -44.00,76.21 -55.00,57.16 -44.00,38.11 -22.00,38.11"/><polygon points="-11.00,95.26 -22.00,114.32 -44.00,114.32 -55.00,95.26 -44.00,76.21 -22.00,76.21"/><polygon points="-11.00,133.37 -22.00,152.42 -44.00,152.42 -55.00,133.37 -44.00,114.32 -22.00,114.32"/><polygon points="22.00,-38.11 11.00,-19.05 -11.00,-19.05 -22.00,-38.11 -11.00,-57.16 11.00,-57.16"/><polygon points="22.00,0.00 11.00,19.05 -11.00,19.05 -22.00,0.00 -11.00,-19.05 11.00,-19.05"/><polygon points="22.00,38.11 11.00,57.16 -11.00,57.16 -22.00,38.11 -11.00,19.05 11.00,19.05"/><polygon points="22.00,76.21 11.00,95.26 -11.00,95.26 -22.00,76.21 -11.00,57.16 11.00,57.16"/><polygon points="22.00,114.32 11.00,133.37 -11.00,133.37 -22.00,114.32 -11.00,95.26 11.00,95.26"/><polygon points="55.00,-19.05 44.00,0.00 22.00,0.00 11.00,-19.05 22.00,-38.11 44.00,-38.11"/><polygon points="55.00,19.05 44.00,38.11 22.00,38.11 11.00,19.05 22.00,0.00 44.00,0.00"/><polygon points="55.00,57.16 44.00,76.21 22.00,76.21 11.00,57.16 22.00,38.11 44.00,38.11"/><polygon points="55.00,95.26 44.00,114.32 22.00,114.32 11.00,95.26 22.00,76.21 44.00,76.21"/><polygon points="55.00,133.37 44.00,152.42 22.00,152.42 11.00,133.37 22.00,114.32 44.00,114.32"/><polygon points="88.00,-38.11 77.00,-19.05 55.00,-19.05 44.00,-38.11 55.00,-57.16 77.00,-57.16"/><polygon points="88.00,0.00 77.00,19.05 55.00,19.05 44.00,0.00 55.00,-19.05 77.00,-19.05"/><polygon points="88.00,38.11 77.00,57.16 55.00,57.16 44.00,38.11 55.00,19.05 77.00,19.05"/><polygon points="88.00,76.21 77.00,95.26 55.00,95.26 44.00,76.21 55.00,57.16 77.00,57.16"/><polygon points="88.00,114.32 77.00,133.37 55.00,133.37 44.00,114.32 55.00,95.26 77.00,95.26"/><polygon points="121.00,-19.05 110.00,0.00 88.00,0.00 77.00,-19.05 88.00,-38.11 110.00,-38.11"/><polygon points="121.00,19.05 110.00,38.11 88.00,38.11 77.00,19.05 88.00,0.00 110.00,0.00"/><polygon points="121.00,57.16 110.00,76.21 88.00,76.21 77.00,57.16 88.00,38.11 110.00,38.11"/><polygon points="121.00,95.26 110.00,114.32 88.00,114.32 77.00,95.26 88.00,76.21 110.00,76.21"/><polygon points="121.00,133.37 110.00,152.42 88.00,152.42 77.00,133.37 88.00,114.32 110.00,114.32"/></g></svg>