<svg xmlns="http://www.w3.org/2000/svg" width="78.00" height="45.03" viewBox="0 0 78.00 45.03"><g fill="none" stroke="#ffffff" stroke-width="1.2" opacity="0.5"><polygon points="-13.00,-22.52 -26.00,0.00 -52.00,0.00 -65.00,-22.52 -52.00,-45.03 -26.00,-45.03"/><polygon points="-13.00,22.52 -26.00,45.03 -52.00,45.03 -65.00,22.52 -52.00,0.00 -26.00,0.00"/><polygon points="-13.00,67.55 -26.00,90.07 -52.00,90.07 -65.00,67.55 -52.00,45.03 -26.00,45.03"/><polygon points="-13.00,112.58 -26.00,135.10 -52.00,135.10 -65.00,112.58 -52.00,90.07 -26.00,90.07"/><polygon points="-13.00,157.62 -26.00,180.13 -52.00,180.13 -65.00,157.62 -52.00,135.10 -26.00,135.10"/><polygon points="26.00,-45.03 13.00,-22.52 -13.00,-22.52 -26.00,-45.03 -13.00,-67.55 13.00,-67.55"/><polygon points="26.00,0.00 13.00,22.52 -13.00,22.52 -26.00,0.00 -13.00,-22.52 13.00,-22.52"/><polygon points="26.00,45.03 13.00,67.55 -13.00,67.55 -26.00,45.03 -13.00,22.52 13.00,22.52"/><polygon points="26.00,90.07 13.00,112.58 -13.00,112.58 -26.00,90.07 -13.00,67.55 13.00,67.55"/><polygon points="26.00,135.10 13.00,157.62 -13.00,157.62 -26.00,135.10 -13.00,112.58 13.00,112.58"/><polygon points="65.00,-22.52 52.00,0.00 26.00,0.00 13.00,-22.52 26.00,-45.03 52.00,-45.03"/><polygon points="65.00,22.52 52.00,45.03 26.00,45.03 13.00,22.52 26.00,0.00 52.00,0.00"/><polygon points="65.00,67.55 52.00,90.07 26.00,90.07 13.00,67.55 26.00,45.03 52.00,45.03"/><polygon points="65.00,112.58 52.00,135.10 26.00,135.10 13.00,112.58 26.00,90.07 52.00,90.07"/><polygon points="65.00,157.62 52.00,180.13 26.00,180.13 13.00,157.62 26.00,135.10 52.00,135.10"/><polygon points="104.00,-45.03 91.00,-22.52 65.00,-22.52 52.00,-45.03 65.00,-67.55 91.00,-67.55"/><polygon points="104.00,0.00 91.00,22.52 65.00,22.52 52.00,0.00 65.00,-22.52 91.00,-22.52"/><polygon points="104.00,45.03 91.00,67.55 65.00,67.55 52.00,45.03 65.00,22.52 91.00,22.52"/><polygon points="104.00,90.07 91.00,112.58 65.00,112.58 52.00,90.07 65.00,67.55 91.00,67.55"/><polygon points="104.00,135.10 91.00,157.62 65.00,157.62 52.00,135.10 65.00,112.58 91.00,112.58"/><polygon points="143.00,-22.52 130.00,0.00 104.00,0.00 91.00,-22.52 104.00,-45.03 130.00,-45.03"/><polygon points="143.00,22.52 130.00,45.03 104.00,45.03 91.00,22.52 104.00,0.00 130.00,0.00"/><polygon points="143.00,67.55 130.00,90.07 104.00,90.07 91.00,67.55 104.00,45.03 130.00,45.03"/><polygon points="143.00,112.58 130.00,135.10 104.00,135.10 91.00,112.58 104.00,90.07 130.00,90.07"/><polygon points="143.00,157.62 130.00,180.13 104.00,180.13 91.00,157.62 104.00,135.10 130.00,135.10"/></g></svg>