<svg xmlns="http://www.w3.org/2000/svg" viewBox="-46.0 -46.0 291.2 161.0" width="291" height="161" role="img" aria-label="Icone mediche">
<polygon points="0.0,-46.0 39.8,-23.0 39.8,23.0 0.0,46.0 -39.8,23.0 -39.8,-23.0" fill="#69C4D3"/><g transform="translate(0.0,0.0)" fill="#fff"><rect x="-5" y="-16" width="10" height="32" rx="3"/><rect x="-16" y="-5" width="32" height="10" rx="3"/></g><polygon points="79.7,-46.0 119.5,-23.0 119.5,23.0 79.7,46.0 39.8,23.0 39.8,-23.0" fill="#277DC0"/><g transform="translate(79.7,0.0)" fill="#fff"><path d="M0 14 C-18 0 -14 -16 0 -7 C14 -16 18 0 0 14 Z"/></g><polygon points="159.3,-46.0 199.2,-23.0 199.2,23.0 159.3,46.0 119.5,23.0 119.5,-23.0" fill="#0097C9"/><g transform="translate(159.3,0.0)" fill="#fff"><path d="M-6 -15 h12 v9 l9 18 a4 4 0 0 1 -4 6 h-22 a4 4 0 0 1 -4 -6 l9 -18 z" fill="none" stroke="#fff" stroke-width="3.2" stroke-linejoin="round"/><rect x="-9" y="-18" width="18" height="4" rx="2"/></g><polygon points="39.8,23.0 79.7,46.0 79.7,92.0 39.8,115.0 -0.0,92.0 0.0,46.0" fill="#0097C9"/><g transform="translate(39.8,69.0)" fill="#fff"><circle cx="-7" cy="-7" r="9"/><circle cx="8" cy="8" r="9" fill="none" stroke="#fff" stroke-width="3.2"/></g><polygon points="119.5,23.0 159.3,46.0 159.3,92.0 119.5,115.0 79.7,92.0 79.7,46.0" fill="#69C4D3"/><g transform="translate(119.5,69.0)" fill="#fff"><path d="M-18 0 h7 l4 -12 l6 24 l5 -16 l3 4 h7" fill="none" stroke="#fff" stroke-width="3.4" stroke-linecap="round" stroke-linejoin="round"/></g><polygon points="199.2,23.0 239.0,46.0 239.0,92.0 199.2,115.0 159.3,92.0 159.3,46.0" fill="#277DC0"/><g transform="translate(199.2,69.0)" fill="#fff"><g fill="none" stroke="#fff" stroke-width="3.2" stroke-linecap="round"><line x1="-15" y1="15" x2="6" y2="-6"/><line x1="6" y1="-14" x2="14" y2="-6"/><line x1="-2" y1="2" x2="6" y2="10"/><line x1="-18" y1="12" x2="-12" y2="18"/></g></g>
</svg>