<svg xmlns="http://www.w3.org/2000/svg" viewBox="-169.7 -159.0 339.3 318.0" width="339" height="318" role="img" aria-label="Specialita mediche"><defs><filter id="sh" x="-20%" y="-20%" width="140%" height="140%"><feDropShadow dx="0" dy="10" stdDeviation="12" flood-color="#0f3f63" flood-opacity="0.30"/></filter></defs><g filter="url(#sh)"><polygon points="0.0,-44.0 38.1,-22.0 38.1,22.0 0.0,44.0 -38.1,22.0 -38.1,-22.0" fill="#69C4D3" stroke="#ffffff" stroke-width="4"/><g transform="translate(0.0,0.0)" fill="#fff"><g fill="none" stroke="#fff" stroke-width="2.72" stroke-linecap="round" stroke-linejoin="round"><path d="M-12.8 -15.200000000000001 v5.6000000000000005 a 5.6000000000000005 5.6000000000000005 0 0 0 11.200000000000001 0 v-5.6000000000000005"/><path d="M-7.2 -4.0 v5.6000000000000005 a 9.600000000000001 9.600000000000001 0 0 0 19.200000000000003 0 v-2.4000000000000004"/><circle cx="12.0" cy="6.4" r="3.6"/></g></g><polygon points="79.7,-44.0 117.8,-22.0 117.8,22.0 79.7,44.0 41.6,22.0 41.6,-22.0" fill="#277DC0" stroke="#ffffff" stroke-width="4"/><g transform="translate(79.7,0.0)" fill="#fff"><rect x="-5.6000000000000005" y="-16.0" width="11.200000000000001" height="32.0" rx="4.0"/><rect x="-16.0" y="-5.6000000000000005" width="32.0" height="11.200000000000001" rx="4.0"/></g><polygon points="-79.7,-44.0 -41.6,-22.0 -41.6,22.0 -79.7,44.0 -117.8,22.0 -117.8,-22.0" fill="#0097C9" stroke="#ffffff" stroke-width="4"/><g transform="translate(-79.7,0.0)" fill="#fff"><path d="M0 14.4 C -17.6 1.6 -12.8 -14.4 0 -5.6000000000000005 C 12.8 -14.4 17.6 1.6 0 14.4 Z"/></g><polygon points="39.8,-113.0 77.9,-91.0 77.9,-47.0 39.8,-25.0 1.7,-47.0 1.7,-91.0" fill="#0097C9" stroke="#ffffff" stroke-width="4"/><g transform="translate(39.8,-69.0)" fill="#fff"><path d="M-5.6000000000000005 -13.600000000000001 V -4.0 L -12.8 11.200000000000001 A 3.2 3.2 0 0 0 -9.600000000000001 16.0 H 9.600000000000001 A 3.2 3.2 0 0 0 12.8 11.200000000000001 L 5.6000000000000005 -4.0 V -13.600000000000001" fill="none" stroke="#fff" stroke-width="2.72" stroke-linejoin="round"/><line x1="-8.8" y1="-13.600000000000001" x2="8.8" y2="-13.600000000000001" stroke="#fff" stroke-width="2.72" stroke-linecap="round"/><line x1="-7.2" y1="4.0" x2="7.2" y2="4.0" stroke="#fff" stroke-width="2.4000000000000004" stroke-linecap="round"/></g><polygon points="-39.8,-113.0 -1.7,-91.0 -1.7,-47.0 -39.8,-25.0 -77.9,-47.0 -77.9,-91.0" fill="#69C4D3" stroke="#ffffff" stroke-width="4"/><g transform="translate(-39.8,-69.0)" fill="#fff"><g transform="rotate(-45)" fill="none" stroke="#fff" stroke-width="2.72"><rect x="-14.4" y="-6.4" width="28.8" height="12.8" rx="6.4"/><line x1="0" y1="-6.4" x2="0" y2="6.4"/></g></g><polygon points="39.8,25.0 77.9,47.0 77.9,91.0 39.8,113.0 1.7,91.0 1.7,47.0" fill="#277DC0" stroke="#ffffff" stroke-width="4"/><g transform="translate(39.8,69.0)" fill="#fff"><path d="M-17.6 0 H -7.2 L -3.2 -12.0 L 3.2 13.600000000000001 L 7.2 -5.6000000000000005 L 10.4 1.6 H 17.6" fill="none" stroke="#fff" stroke-width="2.8800000000000003" stroke-linecap="round" stroke-linejoin="round"/></g></g></svg>